<svg fill="none" viewBox="0 0 24 24" xmlns="http://www.w3.org/2000/svg"><path d="m23.6428 14.8996c-1.5961 6.4378-8.1228 10.3393-14.54292 8.7432-6.42016-1.5962-10.33989-8.1225-8.743748-14.54241 1.596138-6.43781 8.105128-10.33934 14.543168-8.743197 6.4379 1.613797 10.3397 8.122507 8.7435 14.542407z" fill="#f7941d"/><path d="m17.1995 10.2163c.2303-1.5961-.9755-2.44741-2.6428-3.03252l.5322-2.16359-1.3126-.33683-.5319 2.11035-1.0463-.24828.5319-2.12828-1.3123-.33683-.5322 2.16359c-.2838-.07089-.5674-.12413-.8336-.19503l-1.80885-.46124-.35476 1.4011.9578.23063c.53186.14179.63835.47889.62069.76248l-.62069 2.46515c.03531.0176.08855.0176.14179.0355-.03558-.0176-.08883-.0176-.14179-.0355l-.86924 3.4582c-.0709.1597-.23035.408-.60304.3192.01793.0176-.95752-.2307-.95752-.2307l-.65628 1.5076 1.72028.4257.94014.2483-.54979 2.1812 1.31228.3368.53214-2.1636c.35474.1065.70924.1951 1.04634.266l-.5321 2.1459 1.3125.3368.5498-2.1812c2.2524.4256 3.9371.2483 4.6466-1.7735.5675-1.6318-.0355-2.5716-1.206-3.1923.8513-.1774 1.4899-.7448 1.6673-1.9153zm-3.0152 4.221c-.408 1.6317-3.157.7448-4.0612.5322l.7269-2.8908c.9045.2127 3.76.6563 3.3343 2.3586zm.408-4.2386c-.3724 1.4896-2.6604.7272-3.4052.5498l.6562-2.62485c.7449.17737 3.1391.5142 2.749 2.07505z" fill="#fffdfa"/></svg>