<svg enable-background="new 0 0 55.68 38.88" viewBox="0 0 55.68 38.88" xmlns="http://www.w3.org/2000/svg"><path d="m3.27.24h49.13c1.67 0 3.03 1.36 3.03 3.03v32.33c0 1.67-1.37 3.03-3.03 3.03h-49.13c-1.67 0-3.03-1.37-3.03-3.03v-32.33c0-1.67 1.36-3.03 3.03-3.03z" fill="#a51931"/><path d="m.24 5.59h55.2v27.7h-55.2z" fill="#f4f5f8"/><path d="m.24 12.52h55.2v13.84h-55.2z" fill="#2d2a4a"/><path d="m3.27.24h49.13c1.67 0 3.03 1.36 3.03 3.03v32.33c0 1.67-1.37 3.03-3.03 3.03h-49.13c-1.67 0-3.03-1.37-3.03-3.03v-32.33c0-1.67 1.36-3.03 3.03-3.03z" fill="none" stroke="#ccc" stroke-miterlimit="22.9256" stroke-width=".4799"/></svg>