<svg enable-background="new 0 0 55.2 38.4" viewBox="0 0 55.2 38.4" xmlns="http://www.w3.org/2000/svg"><path d="m3.01 0h49.17c1.66.01 3.01 1.37 3.01 3.03v32.33c0 1.66-1.35 3.02-3.01 3.03l-49.18.01c-1.65-.02-3-1.38-3-3.03v-32.34c0-1.66 1.35-3.02 3.01-3.03z" fill="#de2910"/><g fill="#ffde00"><path d="m8.4 3.84 3.39 10.42-8.87-6.44h10.96l-8.87 6.44z"/><path d="m18.75 2.07-.32 3.64-1.88-3.13 3.36 1.43-3.56.82z"/><path d="m23.22 6.34-1.71 3.23-.52-3.61 2.55 2.62-3.6-.63z"/><path d="m23.64 12.78-2.87 2.25 1-3.51 1.25 3.43-3.03-2.04z"/><path d="m18.68 15.48-.17 3.65-2.01-3.05 3.42 1.29-3.52.97z"/></g></svg>