<svg enable-background="new 0 0 55.2 38.4" viewBox="0 0 55.2 38.4" xmlns="http://www.w3.org/2000/svg"><path d="m2.87 38.4h49.46c1.59-.09 2.87-1.42 2.87-3.03v-32.34c0-1.66-1.35-3.02-3.01-3.03h-49.18c-1.66.01-3.01 1.37-3.01 3.03v32.33c0 1.62 1.28 2.95 2.87 3.04z" fill="#fefefe"/><path d="m23.74 23.03v15.37h7.68v-15.37h23.78v-7.68h-23.78v-15.35h-7.68v15.35h-23.74v7.68z" fill="#c8102e"/><g fill="#012169"><path d="m33.98 12.43v-12.43h18.23c1.26.02 2.34.81 2.78 1.92z"/><path d="m33.98 25.97v12.43h18.35c1.21-.07 2.23-.85 2.66-1.92z"/><path d="m21.18 25.97v12.43h-18.31c-1.21-.07-2.24-.85-2.66-1.94z"/><path d="m21.18 12.43v-12.43h-18.19c-1.26.02-2.35.82-2.78 1.94z"/><path d="m0 12.8h7.65l-7.65-3.83z"/><path d="m55.2 12.8h-7.69l7.69-3.85z"/><path d="m55.2 25.6h-7.69l7.69 3.85z"/><path d="m0 25.6h7.65l-7.65 3.83z"/></g><path d="m55.2 3.25-19.05 9.55h4.26l14.79-7.4z" fill="#c8102e"/><path d="m19.01 25.6h-4.26l-14.75 7.38v2.15l19.05-9.53z" fill="#c8102e"/><path d="m10.52 12.81h4.26l-14.78-7.4v2.14z" fill="#c8102e"/><path d="m44.63 25.59h-4.26l14.83 7.43v-2.14z" fill="#c8102e"/></svg>